<svg width="57" height="38" viewBox="0 0 57 38" fill="none" xmlns="http://www.w3.org/2000/svg">
<path fill-rule="evenodd" clip-rule="evenodd" d="M57 18.9999C57 18.4695 56.7893 17.9608 56.4142 17.5857C56.0391 17.2106 55.5304 16.9999 55 16.9999L7.82801 16.9999L20.416 4.41591C20.7916 4.04037 21.0025 3.53102 21.0025 2.99991C21.0025 2.46881 20.7916 1.95946 20.416 1.58391C20.0405 1.20837 19.5311 0.997389 19 0.997389C18.4689 0.997389 17.9596 1.20837 17.584 1.58391L1.58401 17.5839C1.39776 17.7697 1.24999 17.9904 1.14916 18.2334C1.04833 18.4764 0.996434 18.7368 0.996434 18.9999C0.996434 19.263 1.04833 19.5235 1.14916 19.7664C1.24999 20.0094 1.39776 20.2301 1.58401 20.4159L17.584 36.4159C17.9595 36.7915 18.4689 37.0024 19 37.0024C19.5311 37.0024 20.0405 36.7915 20.416 36.4159C20.7915 36.0404 21.0025 35.531 21.0025 34.9999C21.0025 34.4688 20.7915 33.9595 20.416 33.5839L7.82801 20.9999L55 20.9999C55.5304 20.9999 56.0391 20.7892 56.4142 20.4141C56.7893 20.0391 57 19.5303 57 18.9999Z" fill="#424D79"/>
</svg>
