<svg width="57" height="38" viewBox="0 0 57 38" fill="none" xmlns="http://www.w3.org/2000/svg">
<path fill-rule="evenodd" clip-rule="evenodd" d="M-7.86915e-07 18.9999C-8.10101e-07 18.4695 0.210713 17.9608 0.585785 17.5857C0.960858 17.2106 1.46957 16.9999 2 16.9999L49.172 16.9999L36.584 4.41591C36.2084 4.04037 35.9975 3.53102 35.9975 2.99991C35.9975 2.46881 36.2084 1.95946 36.584 1.58391C36.9595 1.20837 37.4689 0.997389 38 0.997389C38.5311 0.997389 39.0404 1.20837 39.416 1.58391L55.416 17.5839C55.6022 17.7697 55.75 17.9904 55.8508 18.2334C55.9517 18.4764 56.0036 18.7368 56.0036 18.9999C56.0036 19.263 55.9517 19.5235 55.8508 19.7664C55.75 20.0094 55.6022 20.2301 55.416 20.4159L39.416 36.4159C39.0405 36.7915 38.5311 37.0024 38 37.0024C37.4689 37.0024 36.9595 36.7915 36.584 36.4159C36.2085 36.0404 35.9975 35.531 35.9975 34.9999C35.9975 34.4688 36.2085 33.9595 36.584 33.5839L49.172 20.9999L2 20.9999C1.46957 20.9999 0.960858 20.7892 0.585786 20.4141C0.210713 20.0391 -7.63729e-07 19.5303 -7.86915e-07 18.9999Z" fill="#424D79"/>
</svg>
