<svg width="48" height="48" viewBox="0 0 48 48" fill="none" xmlns="http://www.w3.org/2000/svg">
<path d="M17.3546 14.1783H11.6864L10.7485 16.8314H7.75122L12.869 2.8877H16.1924L21.3102 16.8314H18.2925L17.3546 14.1783ZM16.5798 11.9441L14.5205 6.11928L12.4612 11.9441H16.5798ZM35.4217 16.8314L32.2817 11.4055H30.936V16.8314H28.0815V2.90764H33.4235C34.5246 2.90764 35.4625 3.10047 36.2373 3.48614C37.0121 3.8585 37.5898 4.3705 37.9704 5.02214C38.3646 5.66047 38.5617 6.3786 38.5617 7.17653C38.5617 8.09414 38.2898 8.92531 37.7461 9.67003C37.2024 10.4015 36.3936 10.9068 35.3197 11.1861L38.7248 16.8314H35.4217ZM30.936 9.31097H33.3216C34.0964 9.31097 34.6741 9.13144 35.0547 8.77237C35.4353 8.40001 35.6256 7.88801 35.6256 7.23637C35.6256 6.59803 35.4353 6.10598 35.0547 5.76022C34.6741 5.40115 34.0964 5.22162 33.3216 5.22162H30.936V9.31097ZM7.93473 32.7067C7.93473 31.3369 8.24736 30.1135 8.87264 29.0363C9.5115 27.9458 10.3747 27.1013 11.4621 26.5029C12.5631 25.8911 13.7933 25.5853 15.1526 25.5853C16.7429 25.5853 18.1362 25.9842 19.3324 26.7821C20.5286 27.5801 21.3645 28.6839 21.8403 30.0935H18.5576C18.2314 29.4286 17.7692 28.9299 17.1711 28.5974C16.5866 28.2649 15.907 28.0987 15.1322 28.0987C14.303 28.0987 13.5622 28.2915 12.9097 28.6772C12.2709 29.0496 11.7679 29.5815 11.4009 30.273C11.0475 30.9646 10.8708 31.7758 10.8708 32.7067C10.8708 33.6243 11.0475 34.4355 11.4009 35.1404C11.7679 35.8319 12.2709 36.3705 12.9097 36.7562C13.5622 37.1285 14.303 37.3147 15.1322 37.3147C15.907 37.3147 16.5866 37.1485 17.1711 36.816C17.7692 36.4702 18.2314 35.9649 18.5576 35.3H21.8403C21.3645 36.7229 20.5286 37.8334 19.3324 38.6313C18.1498 39.4159 16.7565 39.8082 15.1526 39.8082C13.7933 39.8082 12.5631 39.509 11.4621 38.9106C10.3747 38.2988 9.5115 37.4543 8.87264 36.3772C8.24736 35.3 7.93473 34.0765 7.93473 32.7067ZM40.9423 25.7648V39.6885H38.0878V33.764H31.9913V39.6885H29.1368V25.7648H31.9913V31.4899H38.0878V25.7648H40.9423Z" fill="#424D79"/>
<path d="M2.54867 1.24675V0H0V1.24675H2.54867ZM1.27434 46.7532H0V48H1.27434V46.7532ZM0 1.24675V46.7532H2.54867V1.24675H0ZM1.27434 48H48V45.5065H1.27434V48Z" fill="#424D79"/>
</svg>
